<svg width="131" height="131" xmlns="http://www.w3.org/2000/svg" xmlns:xlink="http://www.w3.org/1999/xlink" xml:space="preserve" overflow="hidden"><g transform="translate(-170 -229)"><path d="M264.19 289.062 264.19 272.709C264.19 256.863 251.345 244.017 235.499 244.017 219.653 244.017 206.807 256.863 206.807 272.709L206.807 289.061 197.288 289.743 197.288 341.61 235.496 344.339 273.704 341.61 273.704 289.74ZM209.536 272.709C209.536 258.37 221.16 246.746 235.499 246.746 249.837 246.746 261.461 258.37 261.461 272.709L261.461 288.879 257.333 288.604 257.333 272.675C257.333 260.617 247.558 250.842 235.5 250.842 223.442 250.842 213.667 260.617 213.667 272.675L213.667 288.604 209.539 288.877ZM254.604 288.413 235.5 287.011 216.396 288.413 216.396 272.675C216.396 262.124 224.949 253.571 235.5 253.571 246.051 253.571 254.604 262.124 254.604 272.675ZM270.979 339.069 235.5 341.604 200.021 339.069 200.021 292.283 207.027 291.782 215.232 291.236 235.5 289.747 255.787 291.236 263.962 291.782 270.979 292.283Z"/><path d="M235.5 304.756C230.202 304.778 225.925 309.09 225.946 314.389 225.962 318.071 228.083 321.42 231.406 323.006L231.406 330.69 239.594 330.69 239.594 322.973C242.893 321.337 245 317.993 245.052 314.311 245.047 309.037 240.774 304.763 235.5 304.756ZM237.731 320.82 236.865 321.16 236.865 327.961 234.135 327.961 234.135 321.12 233.218 320.802C229.647 319.557 227.762 315.651 229.007 312.08 230.253 308.508 234.158 306.623 237.73 307.869 240.472 308.825 242.313 311.407 242.323 314.311 242.263 317.215 240.445 319.791 237.73 320.82Z"/></g></svg>