<svg width="188" height="188" xmlns="http://www.w3.org/2000/svg" xmlns:xlink="http://www.w3.org/1999/xlink" xml:space="preserve" overflow="hidden"><g transform="translate(-592 -220)"><path d="M652.708 280.708 631.167 280.708 631.167 267 652.708 267 652.708 280.708ZM682.083 267 682.083 280.708 660.542 280.708 660.542 267 682.083 267ZM711.458 267 711.458 280.708 689.917 280.708 689.917 267 711.458 267ZM740.833 267 740.833 280.708 719.292 280.708 719.292 267 740.833 267ZM740.833 302.25 719.292 302.25 719.292 288.542 740.833 288.542 740.833 302.25ZM740.833 318.896 719.292 320.854 719.292 310.083 740.833 310.083 740.833 318.896ZM652.708 310.083 652.708 326.729 631.167 328.688 631.167 310.083 652.708 310.083ZM652.708 302.25 631.167 302.25 631.167 288.542 652.708 288.542 652.708 302.25ZM682.083 302.25 660.542 302.25 660.542 288.542 682.083 288.542 682.083 302.25ZM689.917 302.25 689.917 288.542 711.458 288.542 711.458 302.25 689.917 302.25ZM682.083 324.183 660.542 326.142 660.542 310.083 682.083 310.083 682.083 324.183ZM689.917 310.083 711.458 310.083 711.458 321.442 689.917 323.4 689.917 310.083ZM752.583 329.667 752.583 255.25 631.167 255.25 631.167 253.292C631.167 243.5 623.333 235.667 613.542 235.667 610.213 235.667 607.667 238.212 607.667 241.542 607.667 244.871 610.213 247.417 613.542 247.417 616.871 247.417 619.417 249.962 619.417 253.292L619.417 351.208C619.417 361 627.25 368.833 637.042 368.833L642.917 368.833 729.083 368.833 746.708 368.833C750.037 368.833 752.583 366.287 752.583 362.958 752.583 359.629 750.037 357.083 746.708 357.083L637.042 357.083C633.713 357.083 631.167 354.537 631.167 351.208L631.167 340.438 752.583 329.667Z"/><path d="M654.667 380.583C654.667 387.073 649.406 392.333 642.917 392.333 636.427 392.333 631.167 387.073 631.167 380.583 631.167 374.094 636.427 368.833 642.917 368.833 649.406 368.833 654.667 374.094 654.667 380.583Z"/><path d="M740.833 380.583C740.833 387.073 735.573 392.333 729.083 392.333 722.594 392.333 717.333 387.073 717.333 380.583 717.333 374.094 722.594 368.833 729.083 368.833 735.573 368.833 740.833 374.094 740.833 380.583Z"/></g></svg>