<svg width="96" height="96" xmlns="http://www.w3.org/2000/svg" xmlns:xlink="http://www.w3.org/1999/xlink" xml:space="preserve" overflow="hidden"><g transform="translate(-357 -451)"><path d="M377 467 381.436 467C383.909 477.917 390.979 492.6 398.764 499.013 390.977 505.422 384.2 519.834 381.8 531L377 531 377 539 433 539 433 531 428.485 531C426.063 520.135 419 505.476 411.136 499.013 419.007 492.544 426.074 477.872 428.491 467L433 467 433 459 377 459ZM431 537 379 537 379 533 384.341 533 384.319 533.023 425.991 533.023 425.969 533 431 533ZM389.047 531 405.006 514.436 421.213 531ZM408.914 498.2C408.466 498.523 408.364 499.148 408.687 499.596 408.75 499.683 408.827 499.76 408.914 499.823 416.7 505.437 423.905 520.064 426.443 531L424.012 531 404.994 511.564 386.268 531 383.833 531C386.312 519.976 393.359 505.318 400.983 499.825 401.431 499.502 401.533 498.877 401.21 498.429 401.147 498.342 401.07 498.265 400.983 498.202 393.277 492.649 386.069 478 383.479 467L426.45 467C423.917 477.942 416.714 492.582 408.914 498.2ZM379 461 431 461 431 465 379 465Z" stroke="#92D050"/><path d="M391.952 483.472C395.186 489.515 398.809 494.172 402.152 496.579L404 497.911 404 499 406 499 406 497.837 407.745 496.579C411.126 494.143 414.768 489.488 418 483.473L418.789 482 391.165 482ZM415.421 484C412.551 489.033 409.442 492.891 406.575 494.957L404.948 496.129 403.322 494.957C400.488 492.915 397.397 489.057 394.522 484Z" stroke="#92D050"/><path d="M404 509 406 509 406 511 404 511Z" stroke="#92D050"/><path d="M404 501 406 501 406 503 404 503Z" stroke="#92D050"/><path d="M404 505 406 505 406 507 404 507Z" stroke="#92D050"/></g></svg>